<mxfile host="Electron" agent="Mozilla/5.0 (Macintosh; Intel Mac OS X 10_15_7) AppleWebKit/537.36 (KHTML, like Gecko) draw.io/27.0.9 Chrome/134.0.6998.205 Electron/35.4.0 Safari/537.36" version="27.0.9">
  <diagram name="페이지-1" id="2OtFXK_j1tlPG90HXtPZ">
    <mxGraphModel dx="2524" dy="1148" grid="1" gridSize="10" guides="1" tooltips="1" connect="1" arrows="1" fold="1" page="1" pageScale="1" pageWidth="827" pageHeight="1169" math="1" shadow="0">
      <root>
        <mxCell id="0" />
        <mxCell id="1" parent="0" />
        <mxCell id="CFoMmbY4XtNixEHZfKA1-187" value="&lt;font style=&quot;font-size: 30px;&quot;&gt;observation&lt;/font&gt;" style="rounded=1;whiteSpace=wrap;html=1;align=left;textDirection=vertical-rl;fontSize=15;fillColor=#ffe6cc;strokeColor=#d79b00;container=0;" parent="1" vertex="1">
          <mxGeometry y="290" width="32" height="200" as="geometry" />
        </mxCell>
        <mxCell id="CFoMmbY4XtNixEHZfKA1-190" value="&lt;font style=&quot;font-size: 30px;&quot;&gt;action&lt;/font&gt;" style="rounded=1;whiteSpace=wrap;html=1;align=left;textDirection=vertical-rl;fontSize=15;fillColor=#dae8fc;strokeColor=#6c8ebf;container=0;" parent="1" vertex="1">
          <mxGeometry x="248" y="340" width="32" height="101.48" as="geometry" />
        </mxCell>
        <mxCell id="CFoMmbY4XtNixEHZfKA1-192" value="&lt;font style=&quot;font-size: 30px;&quot;&gt;value&lt;/font&gt;" style="rounded=1;whiteSpace=wrap;html=1;align=left;textDirection=vertical-rl;fontSize=15;container=0;" parent="1" vertex="1">
          <mxGeometry x="248" y="746.25" width="32" height="97.5" as="geometry" />
        </mxCell>
        <mxCell id="CFoMmbY4XtNixEHZfKA1-230" value="" style="endArrow=blockThin;html=1;rounded=0;endFill=1;movable=1;resizable=1;rotatable=1;deletable=1;editable=1;locked=0;connectable=1;entryX=0;entryY=0.5;entryDx=0;entryDy=0;exitX=0.5;exitY=1;exitDx=0;exitDy=0;" parent="1" source="CFoMmbY4XtNixEHZfKA1-31" target="CFoMmbY4XtNixEHZfKA1-187" edge="1">
          <mxGeometry width="50" height="50" relative="1" as="geometry">
            <mxPoint x="-547" y="800" as="sourcePoint" />
            <mxPoint x="571" y="730" as="targetPoint" />
            <Array as="points">
              <mxPoint x="-420" y="940" />
              <mxPoint x="-232" y="940" />
              <mxPoint x="-50" y="940" />
              <mxPoint x="-50" y="390" />
            </Array>
          </mxGeometry>
        </mxCell>
        <mxCell id="CFoMmbY4XtNixEHZfKA1-231" value="" style="endArrow=none;html=1;rounded=0;exitX=0.5;exitY=0;exitDx=0;exitDy=0;endFill=1;movable=1;resizable=1;rotatable=1;deletable=1;editable=1;locked=0;connectable=1;entryX=1;entryY=0.5;entryDx=0;entryDy=0;startArrow=block;startFill=1;" parent="1" source="CFoMmbY4XtNixEHZfKA1-31" target="CFoMmbY4XtNixEHZfKA1-190" edge="1">
          <mxGeometry width="50" height="50" relative="1" as="geometry">
            <mxPoint x="-342" y="890" as="sourcePoint" />
            <mxPoint x="261" y="230" as="targetPoint" />
            <Array as="points">
              <mxPoint x="-420" y="210" />
              <mxPoint x="-162" y="210" />
              <mxPoint x="-82" y="210" />
              <mxPoint x="308" y="210" />
              <mxPoint x="308" y="391" />
            </Array>
          </mxGeometry>
        </mxCell>
        <mxCell id="CFoMmbY4XtNixEHZfKA1-233" value="&lt;font&gt;Actor&lt;/font&gt;" style="text;html=1;align=center;verticalAlign=middle;whiteSpace=wrap;rounded=0;container=0;fontSize=30;" parent="1" vertex="1">
          <mxGeometry x="102" y="240" width="82" height="30" as="geometry" />
        </mxCell>
        <mxCell id="CFoMmbY4XtNixEHZfKA1-236" value="&lt;font&gt;Critic&lt;/font&gt;" style="text;html=1;align=center;verticalAlign=middle;whiteSpace=wrap;rounded=0;fontSize=30;container=0;" parent="1" vertex="1">
          <mxGeometry x="110.17" y="650" width="60" height="30" as="geometry" />
        </mxCell>
        <mxCell id="CFoMmbY4XtNixEHZfKA1-237" value="&lt;font&gt;Cost Critic&lt;/font&gt;" style="text;html=1;align=center;verticalAlign=middle;whiteSpace=wrap;rounded=0;container=0;fontSize=30;" parent="1" vertex="1">
          <mxGeometry x="468" y="650" width="162" height="30" as="geometry" />
        </mxCell>
        <mxCell id="CFoMmbY4XtNixEHZfKA1-238" value="" style="endArrow=blockThin;html=1;rounded=0;endFill=1;movable=1;resizable=1;rotatable=1;deletable=1;editable=1;locked=0;connectable=1;entryX=0.214;entryY=1.015;entryDx=0;entryDy=0;exitX=1;exitY=0.5;exitDx=0;exitDy=0;entryPerimeter=0;" parent="1" source="CFoMmbY4XtNixEHZfKA1-192" target="CFoMmbY4XtNixEHZfKA1-152" edge="1">
          <mxGeometry width="50" height="50" relative="1" as="geometry">
            <mxPoint x="488" y="982" as="sourcePoint" />
            <mxPoint x="1501" y="630" as="targetPoint" />
            <Array as="points">
              <mxPoint x="318" y="795" />
              <mxPoint x="318" y="560" />
              <mxPoint x="89" y="560" />
            </Array>
          </mxGeometry>
        </mxCell>
        <mxCell id="CFoMmbY4XtNixEHZfKA1-239" value="" style="endArrow=blockThin;html=1;rounded=0;endFill=1;movable=1;resizable=1;rotatable=1;deletable=1;editable=1;locked=0;connectable=1;entryX=0.5;entryY=1;entryDx=0;entryDy=0;exitX=0.973;exitY=0.517;exitDx=0;exitDy=0;exitPerimeter=0;" parent="1" source="Q-EU4Q4c3PTDjTRaEYYh-5" target="CFoMmbY4XtNixEHZfKA1-152" edge="1">
          <mxGeometry width="50" height="50" relative="1" as="geometry">
            <mxPoint x="690" y="740" as="sourcePoint" />
            <mxPoint x="358" y="420" as="targetPoint" />
            <Array as="points">
              <mxPoint x="710" y="790" />
              <mxPoint x="710" y="750" />
              <mxPoint x="710" y="560" />
              <mxPoint x="450" y="560" />
              <mxPoint x="290" y="560" />
              <mxPoint x="143" y="560" />
            </Array>
          </mxGeometry>
        </mxCell>
        <mxCell id="CFoMmbY4XtNixEHZfKA1-271" value="" style="endArrow=blockThin;html=1;rounded=0;endFill=1;movable=1;resizable=1;rotatable=1;deletable=1;editable=1;locked=0;connectable=1;entryX=0.789;entryY=1.005;entryDx=0;entryDy=0;fillColor=#d5e8d4;strokeColor=#82b366;entryPerimeter=0;exitX=0;exitY=0.5;exitDx=0;exitDy=0;" parent="1" source="0FYvdhBju1f0UNd1yTLN-28" target="CFoMmbY4XtNixEHZfKA1-152" edge="1">
          <mxGeometry width="50" height="50" relative="1" as="geometry">
            <mxPoint x="760" y="540" as="sourcePoint" />
            <mxPoint x="258" y="470" as="targetPoint" />
            <Array as="points">
              <mxPoint x="760" y="390" />
              <mxPoint x="760" y="540" />
              <mxPoint x="510" y="540" />
              <mxPoint x="358" y="540" />
              <mxPoint x="198" y="540" />
            </Array>
          </mxGeometry>
        </mxCell>
        <mxCell id="I3EhIIcW9qmq0nCsSESQ-6" value="`a_t`: action" style="text;html=1;align=center;verticalAlign=middle;whiteSpace=wrap;rounded=0;fontSize=30;container=0;" parent="1" vertex="1">
          <mxGeometry x="-106.83" y="170" width="152" height="30" as="geometry" />
        </mxCell>
        <mxCell id="I3EhIIcW9qmq0nCsSESQ-9" value="&lt;font style=&quot;font-size: 30px;&quot;&gt;observation&lt;/font&gt;" style="rounded=1;whiteSpace=wrap;html=1;align=left;textDirection=vertical-rl;fontSize=15;fillColor=#ffe6cc;strokeColor=#d79b00;container=0;" parent="1" vertex="1">
          <mxGeometry y="695" width="32" height="200" as="geometry" />
        </mxCell>
        <mxCell id="I3EhIIcW9qmq0nCsSESQ-10" value="&lt;font style=&quot;font-size: 30px;&quot;&gt;observation&lt;/font&gt;" style="rounded=1;whiteSpace=wrap;html=1;align=left;textDirection=vertical-rl;fontSize=15;fillColor=#ffe6cc;strokeColor=#d79b00;container=0;" parent="1" vertex="1">
          <mxGeometry x="414" y="688.51" width="32" height="200" as="geometry" />
        </mxCell>
        <mxCell id="I3EhIIcW9qmq0nCsSESQ-11" value="" style="endArrow=blockThin;html=1;rounded=0;endFill=1;movable=1;resizable=1;rotatable=1;deletable=1;editable=1;locked=0;connectable=1;entryX=0;entryY=0.5;entryDx=0;entryDy=0;exitX=0.5;exitY=1;exitDx=0;exitDy=0;" parent="1" source="CFoMmbY4XtNixEHZfKA1-31" target="I3EhIIcW9qmq0nCsSESQ-10" edge="1">
          <mxGeometry width="50" height="50" relative="1" as="geometry">
            <mxPoint x="-552" y="800" as="sourcePoint" />
            <mxPoint x="403" y="665" as="targetPoint" />
            <Array as="points">
              <mxPoint x="-420" y="940" />
              <mxPoint x="-12" y="940" />
              <mxPoint x="258" y="940" />
              <mxPoint x="368" y="940" />
              <mxPoint x="368" y="789" />
            </Array>
          </mxGeometry>
        </mxCell>
        <mxCell id="I3EhIIcW9qmq0nCsSESQ-13" value="" style="endArrow=blockThin;html=1;rounded=0;endFill=1;movable=1;resizable=1;rotatable=1;deletable=1;editable=1;locked=0;connectable=1;entryX=0;entryY=0.5;entryDx=0;entryDy=0;exitX=0.5;exitY=1;exitDx=0;exitDy=0;" parent="1" source="CFoMmbY4XtNixEHZfKA1-31" target="I3EhIIcW9qmq0nCsSESQ-9" edge="1">
          <mxGeometry width="50" height="50" relative="1" as="geometry">
            <mxPoint x="-242" y="1090" as="sourcePoint" />
            <mxPoint x="376" y="720" as="targetPoint" />
            <Array as="points">
              <mxPoint x="-420" y="940" />
              <mxPoint x="-50" y="940" />
              <mxPoint x="-50" y="795" />
            </Array>
          </mxGeometry>
        </mxCell>
        <mxCell id="I3EhIIcW9qmq0nCsSESQ-14" value="" style="endArrow=blockThin;html=1;rounded=0;endFill=1;movable=1;resizable=1;rotatable=1;deletable=1;editable=1;locked=0;connectable=1;exitX=1.003;exitY=0.597;exitDx=0;exitDy=0;exitPerimeter=0;fillColor=#f8cecc;strokeColor=#b85450;entryX=0.5;entryY=1;entryDx=0;entryDy=0;" parent="1" source="CFoMmbY4XtNixEHZfKA1-31" target="0FYvdhBju1f0UNd1yTLN-26" edge="1">
          <mxGeometry width="50" height="50" relative="1" as="geometry">
            <mxPoint x="-410" y="800" as="sourcePoint" />
            <mxPoint x="370" y="520" as="targetPoint" />
            <Array as="points">
              <mxPoint x="10" y="620" />
              <mxPoint x="260" y="620" />
              <mxPoint x="554" y="620" />
              <mxPoint x="554" y="510" />
            </Array>
          </mxGeometry>
        </mxCell>
        <mxCell id="CFoMmbY4XtNixEHZfKA1-31" value="" style="rounded=1;whiteSpace=wrap;html=1;fillColor=none;movable=1;resizable=1;rotatable=1;deletable=1;editable=1;locked=0;connectable=1;container=0;" parent="1" vertex="1">
          <mxGeometry x="-720" y="350" width="600" height="450" as="geometry" />
        </mxCell>
        <mxCell id="CFoMmbY4XtNixEHZfKA1-1" value="" style="rounded=0;whiteSpace=wrap;html=1;fillColor=#f8cecc;strokeColor=default;rotation=15;container=0;movable=1;resizable=1;rotatable=1;deletable=1;editable=1;locked=0;connectable=1;" parent="1" vertex="1">
          <mxGeometry x="-454.621049453614" y="596.0028827345207" width="78.75" height="68.57142857142857" as="geometry" />
        </mxCell>
        <mxCell id="CFoMmbY4XtNixEHZfKA1-2" value="" style="rounded=0;whiteSpace=wrap;html=1;fillColor=#dae8fc;strokeColor=default;rotation=15;container=0;movable=1;resizable=1;rotatable=1;deletable=1;editable=1;locked=0;connectable=1;" parent="1" vertex="1">
          <mxGeometry x="-439.746049453614" y="662.8600255916634" width="26.25" height="17.142857142857142" as="geometry" />
        </mxCell>
        <mxCell id="CFoMmbY4XtNixEHZfKA1-3" value="" style="rounded=0;whiteSpace=wrap;html=1;fillColor=#dae8fc;strokeColor=default;rotation=15;container=0;movable=1;resizable=1;rotatable=1;deletable=1;editable=1;locked=0;connectable=1;" parent="1" vertex="1">
          <mxGeometry x="-408.246049453614" y="579.7171684488063" width="8.75" height="17.142857142857142" as="geometry" />
        </mxCell>
        <mxCell id="CFoMmbY4XtNixEHZfKA1-4" value="" style="rounded=0;whiteSpace=wrap;html=1;fillColor=#dae8fc;strokeColor=default;rotation=15;container=0;movable=1;resizable=1;rotatable=1;deletable=1;editable=1;locked=0;connectable=1;" parent="1" vertex="1">
          <mxGeometry x="-448.496049453614" y="572.0028827345207" width="96.25" height="8.571428571428571" as="geometry" />
        </mxCell>
        <mxCell id="CFoMmbY4XtNixEHZfKA1-5" value="" style="shape=cylinder3;whiteSpace=wrap;html=1;boundedLbl=1;backgroundOutline=1;size=2.875;direction=south;fillColor=#f8cecc;strokeColor=default;rotation=15;container=0;movable=1;resizable=1;rotatable=1;deletable=1;editable=1;locked=0;connectable=1;" parent="1" vertex="1">
          <mxGeometry x="-353.996049453614" y="578.0028827345207" width="21.875" height="25.71428571428571" as="geometry" />
        </mxCell>
        <mxCell id="CFoMmbY4XtNixEHZfKA1-6" value="" style="shape=cylinder3;whiteSpace=wrap;html=1;boundedLbl=1;backgroundOutline=1;size=2.875;direction=south;fillColor=#f8cecc;strokeColor=default;rotation=15;container=0;movable=1;resizable=1;rotatable=1;deletable=1;editable=1;locked=0;connectable=1;" parent="1" vertex="1">
          <mxGeometry x="-467.746049453614" y="548.0028827345207" width="21.875" height="25.71428571428571" as="geometry" />
        </mxCell>
        <mxCell id="CFoMmbY4XtNixEHZfKA1-8" value="" style="ellipse;whiteSpace=wrap;html=1;fillColor=none;movable=1;resizable=1;rotatable=1;deletable=1;editable=1;locked=0;connectable=1;container=0;" parent="1" vertex="1">
          <mxGeometry x="-421.5" y="495" width="10" height="10" as="geometry" />
        </mxCell>
        <mxCell id="CFoMmbY4XtNixEHZfKA1-9" value="" style="ellipse;whiteSpace=wrap;html=1;fillColor=none;movable=1;resizable=1;rotatable=1;deletable=1;editable=1;locked=0;connectable=1;container=0;" parent="1" vertex="1">
          <mxGeometry x="-467.75" y="505" width="10" height="10" as="geometry" />
        </mxCell>
        <mxCell id="CFoMmbY4XtNixEHZfKA1-10" value="" style="ellipse;whiteSpace=wrap;html=1;fillColor=#d5e8d4;strokeColor=#82b366;opacity=80;movable=1;resizable=1;rotatable=1;deletable=1;editable=1;locked=0;connectable=1;container=0;" parent="1" vertex="1">
          <mxGeometry x="-375" y="504" width="10" height="10" as="geometry" />
        </mxCell>
        <mxCell id="CFoMmbY4XtNixEHZfKA1-11" value="" style="ellipse;whiteSpace=wrap;html=1;fillColor=none;movable=1;resizable=1;rotatable=1;deletable=1;editable=1;locked=0;connectable=1;container=0;" parent="1" vertex="1">
          <mxGeometry x="-510" y="538" width="10" height="10" as="geometry" />
        </mxCell>
        <mxCell id="CFoMmbY4XtNixEHZfKA1-12" value="" style="ellipse;whiteSpace=wrap;html=1;fillColor=#d5e8d4;strokeColor=#82b366;movable=1;resizable=1;rotatable=1;deletable=1;editable=1;locked=0;connectable=1;container=0;" parent="1" vertex="1">
          <mxGeometry x="-333" y="534" width="10" height="10" as="geometry" />
        </mxCell>
        <mxCell id="CFoMmbY4XtNixEHZfKA1-13" value="" style="ellipse;whiteSpace=wrap;html=1;fillColor=#d5e8d4;strokeColor=#82b366;opacity=60;movable=1;resizable=1;rotatable=1;deletable=1;editable=1;locked=0;connectable=1;container=0;" parent="1" vertex="1">
          <mxGeometry x="-308.12" y="584.86" width="10" height="10" as="geometry" />
        </mxCell>
        <mxCell id="CFoMmbY4XtNixEHZfKA1-14" value="" style="ellipse;whiteSpace=wrap;html=1;fillColor=#dae8fc;strokeColor=#6c8ebf;opacity=80;movable=1;resizable=1;rotatable=1;deletable=1;editable=1;locked=0;connectable=1;container=0;" parent="1" vertex="1">
          <mxGeometry x="-309.12" y="640" width="10" height="10" as="geometry" />
        </mxCell>
        <mxCell id="CFoMmbY4XtNixEHZfKA1-15" value="" style="ellipse;whiteSpace=wrap;html=1;fillColor=#dae8fc;strokeColor=#6c8ebf;movable=1;resizable=1;rotatable=1;deletable=1;editable=1;locked=0;connectable=1;container=0;" parent="1" vertex="1">
          <mxGeometry x="-330.12" y="681" width="10" height="10" as="geometry" />
        </mxCell>
        <mxCell id="CFoMmbY4XtNixEHZfKA1-16" value="" style="ellipse;whiteSpace=wrap;html=1;fillColor=#dae8fc;strokeColor=#6c8ebf;opacity=60;movable=1;resizable=1;rotatable=1;deletable=1;editable=1;locked=0;connectable=1;container=0;" parent="1" vertex="1">
          <mxGeometry x="-362.25" y="708" width="10" height="10" as="geometry" />
        </mxCell>
        <mxCell id="CFoMmbY4XtNixEHZfKA1-17" value="" style="ellipse;whiteSpace=wrap;html=1;fillColor=none;movable=1;resizable=1;rotatable=1;deletable=1;editable=1;locked=0;connectable=1;container=0;" parent="1" vertex="1">
          <mxGeometry x="-416.24" y="725" width="10" height="10" as="geometry" />
        </mxCell>
        <mxCell id="CFoMmbY4XtNixEHZfKA1-18" value="" style="ellipse;whiteSpace=wrap;html=1;fillColor=#e1d5e7;strokeColor=#9673a6;opacity=80;movable=1;resizable=1;rotatable=1;deletable=1;editable=1;locked=0;connectable=1;container=0;" parent="1" vertex="1">
          <mxGeometry x="-469.75" y="713" width="10" height="10" as="geometry" />
        </mxCell>
        <mxCell id="CFoMmbY4XtNixEHZfKA1-19" value="" style="ellipse;whiteSpace=wrap;html=1;fillColor=none;movable=1;resizable=1;rotatable=1;deletable=1;editable=1;locked=0;connectable=1;container=0;" parent="1" vertex="1">
          <mxGeometry x="-532.37" y="585.5699999999999" width="10" height="10" as="geometry" />
        </mxCell>
        <mxCell id="CFoMmbY4XtNixEHZfKA1-20" value="" style="ellipse;whiteSpace=wrap;html=1;fillColor=#e1d5e7;strokeColor=#9673a6;opacity=80;movable=1;resizable=1;rotatable=1;deletable=1;editable=1;locked=0;connectable=1;container=0;" parent="1" vertex="1">
          <mxGeometry x="-531.37" y="640" width="10" height="10" as="geometry" />
        </mxCell>
        <mxCell id="CFoMmbY4XtNixEHZfKA1-21" value="" style="ellipse;whiteSpace=wrap;html=1;fillColor=#e1d5e7;strokeColor=#9673a6;movable=1;resizable=1;rotatable=1;deletable=1;editable=1;locked=0;connectable=1;container=0;" parent="1" vertex="1">
          <mxGeometry x="-507" y="685" width="10" height="10" as="geometry" />
        </mxCell>
        <mxCell id="CFoMmbY4XtNixEHZfKA1-22" value="" style="shape=cylinder3;whiteSpace=wrap;html=1;boundedLbl=1;backgroundOutline=1;size=9.481481481481381;fillColor=#d5e8d4;strokeColor=#82b366;movable=1;resizable=1;rotatable=1;deletable=1;editable=1;locked=0;connectable=1;container=0;" parent="1" vertex="1">
          <mxGeometry x="-308.12" y="400" width="140" height="90" as="geometry" />
        </mxCell>
        <mxCell id="CFoMmbY4XtNixEHZfKA1-23" value="Goal" style="text;html=1;align=center;verticalAlign=middle;whiteSpace=wrap;rounded=0;fontSize=30;fontColor=#B9E0A5;fontStyle=1;movable=1;resizable=1;rotatable=1;deletable=1;editable=1;locked=0;connectable=1;container=0;" parent="1" vertex="1">
          <mxGeometry x="-279.06" y="360" width="81.88" height="30" as="geometry" />
        </mxCell>
        <mxCell id="CFoMmbY4XtNixEHZfKA1-24" value="" style="shape=cube;whiteSpace=wrap;html=1;boundedLbl=1;backgroundOutline=1;darkOpacity=0.05;darkOpacity2=0.1;size=17;fillColor=#dae8fc;strokeColor=#6c8ebf;movable=1;resizable=1;rotatable=1;deletable=1;editable=1;locked=0;connectable=1;container=0;" parent="1" vertex="1">
          <mxGeometry x="-220" y="680" width="70" height="67" as="geometry" />
        </mxCell>
        <mxCell id="CFoMmbY4XtNixEHZfKA1-25" value="&lt;span style=&quot;background-color: light-dark(#ffffff, var(--ge-dark-color, #121212));&quot;&gt;Vases&lt;/span&gt;" style="text;html=1;align=center;verticalAlign=middle;whiteSpace=wrap;rounded=0;fontSize=30;fontColor=#A9C4EB;fontStyle=1;movable=1;resizable=1;rotatable=1;deletable=1;editable=1;locked=0;connectable=1;container=0;" parent="1" vertex="1">
          <mxGeometry x="-240" y="630" width="90" height="30" as="geometry" />
        </mxCell>
        <mxCell id="CFoMmbY4XtNixEHZfKA1-26" value="&lt;font style=&quot;color: rgb(234, 107, 102);&quot;&gt;Agent&lt;/font&gt;" style="text;html=1;align=center;verticalAlign=middle;whiteSpace=wrap;rounded=0;fontSize=30;fontColor=#B9E0A5;fontStyle=1;movable=1;resizable=1;rotatable=1;deletable=1;editable=1;locked=0;connectable=1;container=0;" parent="1" vertex="1">
          <mxGeometry x="-572.37" y="603.72" width="90" height="30" as="geometry" />
        </mxCell>
        <mxCell id="CFoMmbY4XtNixEHZfKA1-27" value="" style="ellipse;whiteSpace=wrap;html=1;fillColor=#e1d5e7;strokeColor=#9673a6;movable=1;resizable=1;rotatable=1;deletable=1;editable=1;locked=0;connectable=1;container=0;" parent="1" vertex="1">
          <mxGeometry x="-620" y="708" width="80" height="75" as="geometry" />
        </mxCell>
        <mxCell id="CFoMmbY4XtNixEHZfKA1-28" value="&lt;font style=&quot;color: rgb(181, 115, 157);&quot;&gt;Hazard&lt;/font&gt;" style="text;html=1;align=center;verticalAlign=middle;whiteSpace=wrap;rounded=0;fontSize=30;fontColor=#B9E0A5;fontStyle=1;movable=1;resizable=1;rotatable=1;deletable=1;editable=1;locked=0;connectable=1;container=0;" parent="1" vertex="1">
          <mxGeometry x="-690" y="668" width="100" height="27" as="geometry" />
        </mxCell>
        <mxCell id="CFoMmbY4XtNixEHZfKA1-33" value="&lt;b&gt;&lt;font&gt;Simulation&lt;/font&gt;&lt;/b&gt;" style="text;html=1;align=center;verticalAlign=middle;whiteSpace=wrap;rounded=0;movable=1;resizable=1;rotatable=1;deletable=1;editable=1;locked=0;connectable=1;fontSize=40;container=0;" parent="1" vertex="1">
          <mxGeometry x="-662.37" y="380" width="200" height="40" as="geometry" />
        </mxCell>
        <mxCell id="CFoMmbY4XtNixEHZfKA1-96" value="" style="ellipse;whiteSpace=wrap;html=1;aspect=fixed;container=0;" parent="1" vertex="1">
          <mxGeometry x="58" y="731.8867924528302" width="16.02004716981132" height="16.02004716981132" as="geometry" />
        </mxCell>
        <mxCell id="CFoMmbY4XtNixEHZfKA1-97" value="" style="ellipse;whiteSpace=wrap;html=1;aspect=fixed;container=0;" parent="1" vertex="1">
          <mxGeometry x="58" y="789.2452830188679" width="16.02004716981132" height="16.02004716981132" as="geometry" />
        </mxCell>
        <mxCell id="CFoMmbY4XtNixEHZfKA1-98" value="" style="ellipse;whiteSpace=wrap;html=1;aspect=fixed;container=0;" parent="1" vertex="1">
          <mxGeometry x="58" y="846.6037735849056" width="16.02004716981132" height="16.02004716981132" as="geometry" />
        </mxCell>
        <mxCell id="CFoMmbY4XtNixEHZfKA1-99" value="" style="ellipse;whiteSpace=wrap;html=1;aspect=fixed;container=0;" parent="1" vertex="1">
          <mxGeometry x="135.15736040609136" y="705" width="16.02004716981132" height="16.02004716981132" as="geometry" />
        </mxCell>
        <mxCell id="CFoMmbY4XtNixEHZfKA1-100" value="" style="ellipse;whiteSpace=wrap;html=1;aspect=fixed;container=0;" parent="1" vertex="1">
          <mxGeometry x="135.15736040609136" y="758.7735849056604" width="16.02004716981132" height="16.02004716981132" as="geometry" />
        </mxCell>
        <mxCell id="CFoMmbY4XtNixEHZfKA1-101" value="" style="ellipse;whiteSpace=wrap;html=1;aspect=fixed;container=0;" parent="1" vertex="1">
          <mxGeometry x="135.15736040609136" y="812.5471698113207" width="16.02004716981132" height="16.02004716981132" as="geometry" />
        </mxCell>
        <mxCell id="CFoMmbY4XtNixEHZfKA1-102" value="" style="ellipse;whiteSpace=wrap;html=1;aspect=fixed;container=0;" parent="1" vertex="1">
          <mxGeometry x="135.15736040609136" y="866.3207547169811" width="16.02004716981132" height="16.02004716981132" as="geometry" />
        </mxCell>
        <mxCell id="CFoMmbY4XtNixEHZfKA1-103" value="" style="ellipse;whiteSpace=wrap;html=1;aspect=fixed;container=0;" parent="1" vertex="1">
          <mxGeometry x="209.42131979695432" y="789.2452830188679" width="16.02004716981132" height="16.02004716981132" as="geometry" />
        </mxCell>
        <mxCell id="CFoMmbY4XtNixEHZfKA1-104" value="" style="endArrow=none;html=1;rounded=0;exitX=1;exitY=0.5;exitDx=0;exitDy=0;entryX=0;entryY=0.5;entryDx=0;entryDy=0;" parent="1" source="CFoMmbY4XtNixEHZfKA1-96" target="CFoMmbY4XtNixEHZfKA1-99" edge="1">
          <mxGeometry width="50" height="50" relative="1" as="geometry">
            <mxPoint x="197.84771573604058" y="823.3018867924528" as="sourcePoint" />
            <mxPoint x="221.95939086294416" y="805.377358490566" as="targetPoint" />
          </mxGeometry>
        </mxCell>
        <mxCell id="CFoMmbY4XtNixEHZfKA1-105" value="" style="endArrow=none;html=1;rounded=0;exitX=0;exitY=0.5;exitDx=0;exitDy=0;entryX=1;entryY=0.5;entryDx=0;entryDy=0;" parent="1" source="CFoMmbY4XtNixEHZfKA1-100" target="CFoMmbY4XtNixEHZfKA1-96" edge="1">
          <mxGeometry width="50" height="50" relative="1" as="geometry">
            <mxPoint x="135.15736040609136" y="771.3207547169811" as="sourcePoint" />
            <mxPoint x="173.73604060913704" y="744.433962264151" as="targetPoint" />
          </mxGeometry>
        </mxCell>
        <mxCell id="CFoMmbY4XtNixEHZfKA1-106" value="" style="endArrow=none;html=1;rounded=0;exitX=0;exitY=0.5;exitDx=0;exitDy=0;entryX=1;entryY=0.5;entryDx=0;entryDy=0;" parent="1" source="CFoMmbY4XtNixEHZfKA1-101" target="CFoMmbY4XtNixEHZfKA1-96" edge="1">
          <mxGeometry width="50" height="50" relative="1" as="geometry">
            <mxPoint x="202.67005076142135" y="814.3396226415094" as="sourcePoint" />
            <mxPoint x="164.09137055837562" y="787.4528301886793" as="targetPoint" />
          </mxGeometry>
        </mxCell>
        <mxCell id="CFoMmbY4XtNixEHZfKA1-107" value="" style="endArrow=none;html=1;rounded=0;exitX=0;exitY=0.5;exitDx=0;exitDy=0;entryX=1;entryY=0.5;entryDx=0;entryDy=0;" parent="1" source="CFoMmbY4XtNixEHZfKA1-102" target="CFoMmbY4XtNixEHZfKA1-96" edge="1">
          <mxGeometry width="50" height="50" relative="1" as="geometry">
            <mxPoint x="212.31472081218274" y="882.4528301886793" as="sourcePoint" />
            <mxPoint x="149.62436548223351" y="751.6037735849056" as="targetPoint" />
          </mxGeometry>
        </mxCell>
        <mxCell id="CFoMmbY4XtNixEHZfKA1-108" value="" style="endArrow=none;html=1;rounded=0;exitX=0;exitY=0.5;exitDx=0;exitDy=0;entryX=1;entryY=0.5;entryDx=0;entryDy=0;" parent="1" source="CFoMmbY4XtNixEHZfKA1-99" target="CFoMmbY4XtNixEHZfKA1-97" edge="1">
          <mxGeometry width="50" height="50" relative="1" as="geometry">
            <mxPoint x="202.67005076142135" y="929.0566037735848" as="sourcePoint" />
            <mxPoint x="164.09137055837562" y="794.622641509434" as="targetPoint" />
          </mxGeometry>
        </mxCell>
        <mxCell id="CFoMmbY4XtNixEHZfKA1-109" value="" style="endArrow=none;html=1;rounded=0;exitX=0;exitY=0.5;exitDx=0;exitDy=0;entryX=1;entryY=0.5;entryDx=0;entryDy=0;" parent="1" source="CFoMmbY4XtNixEHZfKA1-100" target="CFoMmbY4XtNixEHZfKA1-97" edge="1">
          <mxGeometry width="50" height="50" relative="1" as="geometry">
            <mxPoint x="149.62436548223351" y="787.4528301886793" as="sourcePoint" />
            <mxPoint x="111.04568527918781" y="871.6981132075472" as="targetPoint" />
          </mxGeometry>
        </mxCell>
        <mxCell id="CFoMmbY4XtNixEHZfKA1-110" value="" style="endArrow=none;html=1;rounded=0;exitX=0;exitY=0.5;exitDx=0;exitDy=0;entryX=1;entryY=0.5;entryDx=0;entryDy=0;" parent="1" source="CFoMmbY4XtNixEHZfKA1-101" target="CFoMmbY4XtNixEHZfKA1-97" edge="1">
          <mxGeometry width="50" height="50" relative="1" as="geometry">
            <mxPoint x="159.26903553299493" y="801.7924528301887" as="sourcePoint" />
            <mxPoint x="120.69035532994923" y="832.2641509433962" as="targetPoint" />
          </mxGeometry>
        </mxCell>
        <mxCell id="CFoMmbY4XtNixEHZfKA1-111" value="" style="endArrow=none;html=1;rounded=0;exitX=0;exitY=0.5;exitDx=0;exitDy=0;entryX=1;entryY=0.5;entryDx=0;entryDy=0;" parent="1" source="CFoMmbY4XtNixEHZfKA1-102" target="CFoMmbY4XtNixEHZfKA1-97" edge="1">
          <mxGeometry width="50" height="50" relative="1" as="geometry">
            <mxPoint x="236.42639593908626" y="814.3396226415094" as="sourcePoint" />
            <mxPoint x="197.84771573604058" y="791.0377358490566" as="targetPoint" />
          </mxGeometry>
        </mxCell>
        <mxCell id="CFoMmbY4XtNixEHZfKA1-112" value="" style="endArrow=none;html=1;rounded=0;exitX=0;exitY=0.5;exitDx=0;exitDy=0;entryX=1;entryY=0.5;entryDx=0;entryDy=0;" parent="1" source="CFoMmbY4XtNixEHZfKA1-99" target="CFoMmbY4XtNixEHZfKA1-98" edge="1">
          <mxGeometry width="50" height="50" relative="1" as="geometry">
            <mxPoint x="236.42639593908626" y="914.7169811320755" as="sourcePoint" />
            <mxPoint x="197.84771573604058" y="837.6415094339623" as="targetPoint" />
          </mxGeometry>
        </mxCell>
        <mxCell id="CFoMmbY4XtNixEHZfKA1-113" value="" style="endArrow=none;html=1;rounded=0;exitX=0;exitY=0.5;exitDx=0;exitDy=0;entryX=1;entryY=0.5;entryDx=0;entryDy=0;" parent="1" source="CFoMmbY4XtNixEHZfKA1-100" target="CFoMmbY4XtNixEHZfKA1-98" edge="1">
          <mxGeometry width="50" height="50" relative="1" as="geometry">
            <mxPoint x="139.97969543147207" y="834.0566037735849" as="sourcePoint" />
            <mxPoint x="101.40101522842639" y="975.6603773584907" as="targetPoint" />
          </mxGeometry>
        </mxCell>
        <mxCell id="CFoMmbY4XtNixEHZfKA1-114" value="" style="endArrow=none;html=1;rounded=0;exitX=0;exitY=0.5;exitDx=0;exitDy=0;entryX=1;entryY=0.5;entryDx=0;entryDy=0;" parent="1" source="CFoMmbY4XtNixEHZfKA1-101" target="CFoMmbY4XtNixEHZfKA1-98" edge="1">
          <mxGeometry width="50" height="50" relative="1" as="geometry">
            <mxPoint x="183.38071065989845" y="834.0566037735849" as="sourcePoint" />
            <mxPoint x="144.80203045685278" y="921.8867924528302" as="targetPoint" />
          </mxGeometry>
        </mxCell>
        <mxCell id="CFoMmbY4XtNixEHZfKA1-115" value="" style="endArrow=none;html=1;rounded=0;exitX=0;exitY=0.5;exitDx=0;exitDy=0;entryX=1;entryY=0.5;entryDx=0;entryDy=0;" parent="1" source="CFoMmbY4XtNixEHZfKA1-102" target="CFoMmbY4XtNixEHZfKA1-98" edge="1">
          <mxGeometry width="50" height="50" relative="1" as="geometry">
            <mxPoint x="226.78172588832484" y="848.3962264150944" as="sourcePoint" />
            <mxPoint x="188.2030456852792" y="882.4528301886793" as="targetPoint" />
          </mxGeometry>
        </mxCell>
        <mxCell id="CFoMmbY4XtNixEHZfKA1-116" value="" style="endArrow=none;html=1;rounded=0;exitX=1;exitY=0.5;exitDx=0;exitDy=0;entryX=0;entryY=0.5;entryDx=0;entryDy=0;" parent="1" source="CFoMmbY4XtNixEHZfKA1-99" target="CFoMmbY4XtNixEHZfKA1-103" edge="1">
          <mxGeometry width="50" height="50" relative="1" as="geometry">
            <mxPoint x="255.71573604060913" y="776.6981132075472" as="sourcePoint" />
            <mxPoint x="217.13705583756342" y="918.3018867924528" as="targetPoint" />
          </mxGeometry>
        </mxCell>
        <mxCell id="CFoMmbY4XtNixEHZfKA1-117" value="" style="endArrow=none;html=1;rounded=0;exitX=1;exitY=0.5;exitDx=0;exitDy=0;entryX=0;entryY=0.5;entryDx=0;entryDy=0;" parent="1" source="CFoMmbY4XtNixEHZfKA1-100" target="CFoMmbY4XtNixEHZfKA1-103" edge="1">
          <mxGeometry width="50" height="50" relative="1" as="geometry">
            <mxPoint x="231.60406091370558" y="776.6981132075472" as="sourcePoint" />
            <mxPoint x="270.18274111675123" y="898.5849056603774" as="targetPoint" />
          </mxGeometry>
        </mxCell>
        <mxCell id="CFoMmbY4XtNixEHZfKA1-118" value="" style="endArrow=none;html=1;rounded=0;exitX=1;exitY=0.5;exitDx=0;exitDy=0;entryX=0;entryY=0.5;entryDx=0;entryDy=0;" parent="1" source="CFoMmbY4XtNixEHZfKA1-101" target="CFoMmbY4XtNixEHZfKA1-103" edge="1">
          <mxGeometry width="50" height="50" relative="1" as="geometry">
            <mxPoint x="212.31472081218274" y="780.2830188679245" as="sourcePoint" />
            <mxPoint x="250.89340101522842" y="848.3962264150944" as="targetPoint" />
          </mxGeometry>
        </mxCell>
        <mxCell id="CFoMmbY4XtNixEHZfKA1-119" value="" style="endArrow=none;html=1;rounded=0;exitX=1;exitY=0.5;exitDx=0;exitDy=0;entryX=0;entryY=0.5;entryDx=0;entryDy=0;" parent="1" source="CFoMmbY4XtNixEHZfKA1-102" target="CFoMmbY4XtNixEHZfKA1-103" edge="1">
          <mxGeometry width="50" height="50" relative="1" as="geometry">
            <mxPoint x="236.42639593908626" y="826.8867924528302" as="sourcePoint" />
            <mxPoint x="275.005076142132" y="841.2264150943396" as="targetPoint" />
          </mxGeometry>
        </mxCell>
        <mxCell id="CFoMmbY4XtNixEHZfKA1-185" value="" style="rounded=1;whiteSpace=wrap;html=1;fillColor=none;container=0;" parent="1" vertex="1">
          <mxGeometry x="45.170000000000016" y="694.01" width="190" height="198.99" as="geometry" />
        </mxCell>
        <mxCell id="CFoMmbY4XtNixEHZfKA1-121" value="" style="ellipse;whiteSpace=wrap;html=1;aspect=fixed;container=0;" parent="1" vertex="1">
          <mxGeometry x="58" y="326.7452830188679" width="15.351457237708285" height="15.351457237708285" as="geometry" />
        </mxCell>
        <mxCell id="CFoMmbY4XtNixEHZfKA1-122" value="" style="ellipse;whiteSpace=wrap;html=1;aspect=fixed;container=0;" parent="1" vertex="1">
          <mxGeometry x="58" y="383.8018867924528" width="15.351457237708285" height="15.351457237708285" as="geometry" />
        </mxCell>
        <mxCell id="CFoMmbY4XtNixEHZfKA1-123" value="" style="ellipse;whiteSpace=wrap;html=1;aspect=fixed;container=0;" parent="1" vertex="1">
          <mxGeometry x="58" y="440.85849056603774" width="15.351457237708285" height="15.351457237708285" as="geometry" />
        </mxCell>
        <mxCell id="CFoMmbY4XtNixEHZfKA1-124" value="" style="ellipse;whiteSpace=wrap;html=1;aspect=fixed;container=0;" parent="1" vertex="1">
          <mxGeometry x="134" y="300" width="15.351457237708285" height="15.351457237708285" as="geometry" />
        </mxCell>
        <mxCell id="CFoMmbY4XtNixEHZfKA1-125" value="" style="ellipse;whiteSpace=wrap;html=1;aspect=fixed;container=0;" parent="1" vertex="1">
          <mxGeometry x="134" y="353.49056603773585" width="15.351457237708285" height="15.351457237708285" as="geometry" />
        </mxCell>
        <mxCell id="CFoMmbY4XtNixEHZfKA1-126" value="" style="ellipse;whiteSpace=wrap;html=1;aspect=fixed;container=0;" parent="1" vertex="1">
          <mxGeometry x="134" y="406.9811320754717" width="15.351457237708285" height="15.351457237708285" as="geometry" />
        </mxCell>
        <mxCell id="CFoMmbY4XtNixEHZfKA1-127" value="" style="ellipse;whiteSpace=wrap;html=1;aspect=fixed;container=0;" parent="1" vertex="1">
          <mxGeometry x="134" y="460.4716981132075" width="15.351457237708285" height="15.351457237708285" as="geometry" />
        </mxCell>
        <mxCell id="CFoMmbY4XtNixEHZfKA1-128" value="" style="ellipse;whiteSpace=wrap;html=1;aspect=fixed;container=0;" parent="1" vertex="1">
          <mxGeometry x="210" y="335.66037735849056" width="15.351457237708285" height="15.351457237708285" as="geometry" />
        </mxCell>
        <mxCell id="CFoMmbY4XtNixEHZfKA1-129" value="" style="ellipse;whiteSpace=wrap;html=1;aspect=fixed;container=0;" parent="1" vertex="1">
          <mxGeometry x="210" y="421.2452830188679" width="15.351457237708285" height="15.351457237708285" as="geometry" />
        </mxCell>
        <mxCell id="CFoMmbY4XtNixEHZfKA1-130" value="" style="endArrow=none;html=1;rounded=0;exitX=1;exitY=0.5;exitDx=0;exitDy=0;entryX=0;entryY=0.5;entryDx=0;entryDy=0;" parent="1" source="CFoMmbY4XtNixEHZfKA1-121" target="CFoMmbY4XtNixEHZfKA1-124" edge="1">
          <mxGeometry width="50" height="50" relative="1" as="geometry">
            <mxPoint x="195.75" y="417.6792452830188" as="sourcePoint" />
            <mxPoint x="219.5" y="399.84905660377353" as="targetPoint" />
          </mxGeometry>
        </mxCell>
        <mxCell id="CFoMmbY4XtNixEHZfKA1-131" value="" style="endArrow=none;html=1;rounded=0;exitX=0;exitY=0.5;exitDx=0;exitDy=0;entryX=1;entryY=0.5;entryDx=0;entryDy=0;" parent="1" source="CFoMmbY4XtNixEHZfKA1-125" target="CFoMmbY4XtNixEHZfKA1-121" edge="1">
          <mxGeometry width="50" height="50" relative="1" as="geometry">
            <mxPoint x="134" y="365.97169811320754" as="sourcePoint" />
            <mxPoint x="172" y="339.22641509433964" as="targetPoint" />
          </mxGeometry>
        </mxCell>
        <mxCell id="CFoMmbY4XtNixEHZfKA1-132" value="" style="endArrow=none;html=1;rounded=0;exitX=0;exitY=0.5;exitDx=0;exitDy=0;entryX=1;entryY=0.5;entryDx=0;entryDy=0;" parent="1" source="CFoMmbY4XtNixEHZfKA1-126" target="CFoMmbY4XtNixEHZfKA1-121" edge="1">
          <mxGeometry width="50" height="50" relative="1" as="geometry">
            <mxPoint x="200.5" y="408.7641509433962" as="sourcePoint" />
            <mxPoint x="162.5" y="382.01886792452825" as="targetPoint" />
          </mxGeometry>
        </mxCell>
        <mxCell id="CFoMmbY4XtNixEHZfKA1-133" value="" style="endArrow=none;html=1;rounded=0;exitX=0;exitY=0.5;exitDx=0;exitDy=0;entryX=1;entryY=0.5;entryDx=0;entryDy=0;" parent="1" source="CFoMmbY4XtNixEHZfKA1-127" target="CFoMmbY4XtNixEHZfKA1-121" edge="1">
          <mxGeometry width="50" height="50" relative="1" as="geometry">
            <mxPoint x="210" y="476.51886792452825" as="sourcePoint" />
            <mxPoint x="148.25" y="346.3584905660377" as="targetPoint" />
          </mxGeometry>
        </mxCell>
        <mxCell id="CFoMmbY4XtNixEHZfKA1-134" value="" style="endArrow=none;html=1;rounded=0;exitX=0;exitY=0.5;exitDx=0;exitDy=0;entryX=1;entryY=0.5;entryDx=0;entryDy=0;" parent="1" source="CFoMmbY4XtNixEHZfKA1-124" target="CFoMmbY4XtNixEHZfKA1-122" edge="1">
          <mxGeometry width="50" height="50" relative="1" as="geometry">
            <mxPoint x="200.5" y="522.877358490566" as="sourcePoint" />
            <mxPoint x="162.5" y="389.1509433962264" as="targetPoint" />
          </mxGeometry>
        </mxCell>
        <mxCell id="CFoMmbY4XtNixEHZfKA1-135" value="" style="endArrow=none;html=1;rounded=0;exitX=0;exitY=0.5;exitDx=0;exitDy=0;entryX=1;entryY=0.5;entryDx=0;entryDy=0;" parent="1" source="CFoMmbY4XtNixEHZfKA1-125" target="CFoMmbY4XtNixEHZfKA1-122" edge="1">
          <mxGeometry width="50" height="50" relative="1" as="geometry">
            <mxPoint x="148.25" y="382.01886792452825" as="sourcePoint" />
            <mxPoint x="110.25" y="465.820754716981" as="targetPoint" />
          </mxGeometry>
        </mxCell>
        <mxCell id="CFoMmbY4XtNixEHZfKA1-136" value="" style="endArrow=none;html=1;rounded=0;exitX=0;exitY=0.5;exitDx=0;exitDy=0;entryX=1;entryY=0.5;entryDx=0;entryDy=0;" parent="1" source="CFoMmbY4XtNixEHZfKA1-126" target="CFoMmbY4XtNixEHZfKA1-122" edge="1">
          <mxGeometry width="50" height="50" relative="1" as="geometry">
            <mxPoint x="157.75" y="396.2830188679245" as="sourcePoint" />
            <mxPoint x="119.75" y="426.5943396226415" as="targetPoint" />
          </mxGeometry>
        </mxCell>
        <mxCell id="CFoMmbY4XtNixEHZfKA1-137" value="" style="endArrow=none;html=1;rounded=0;exitX=0;exitY=0.5;exitDx=0;exitDy=0;entryX=1;entryY=0.5;entryDx=0;entryDy=0;" parent="1" source="CFoMmbY4XtNixEHZfKA1-127" target="CFoMmbY4XtNixEHZfKA1-122" edge="1">
          <mxGeometry width="50" height="50" relative="1" as="geometry">
            <mxPoint x="233.75" y="408.7641509433962" as="sourcePoint" />
            <mxPoint x="195.75" y="385.58490566037733" as="targetPoint" />
          </mxGeometry>
        </mxCell>
        <mxCell id="CFoMmbY4XtNixEHZfKA1-138" value="" style="endArrow=none;html=1;rounded=0;exitX=0;exitY=0.5;exitDx=0;exitDy=0;entryX=1;entryY=0.5;entryDx=0;entryDy=0;" parent="1" source="CFoMmbY4XtNixEHZfKA1-124" target="CFoMmbY4XtNixEHZfKA1-123" edge="1">
          <mxGeometry width="50" height="50" relative="1" as="geometry">
            <mxPoint x="233.75" y="508.61320754716974" as="sourcePoint" />
            <mxPoint x="195.75" y="431.9433962264151" as="targetPoint" />
          </mxGeometry>
        </mxCell>
        <mxCell id="CFoMmbY4XtNixEHZfKA1-139" value="" style="endArrow=none;html=1;rounded=0;exitX=0;exitY=0.5;exitDx=0;exitDy=0;entryX=1;entryY=0.5;entryDx=0;entryDy=0;" parent="1" source="CFoMmbY4XtNixEHZfKA1-125" target="CFoMmbY4XtNixEHZfKA1-123" edge="1">
          <mxGeometry width="50" height="50" relative="1" as="geometry">
            <mxPoint x="138.75" y="428.377358490566" as="sourcePoint" />
            <mxPoint x="100.75" y="569.2358490566037" as="targetPoint" />
          </mxGeometry>
        </mxCell>
        <mxCell id="CFoMmbY4XtNixEHZfKA1-140" value="" style="endArrow=none;html=1;rounded=0;exitX=0;exitY=0.5;exitDx=0;exitDy=0;entryX=1;entryY=0.5;entryDx=0;entryDy=0;" parent="1" source="CFoMmbY4XtNixEHZfKA1-126" target="CFoMmbY4XtNixEHZfKA1-123" edge="1">
          <mxGeometry width="50" height="50" relative="1" as="geometry">
            <mxPoint x="181.5" y="428.377358490566" as="sourcePoint" />
            <mxPoint x="143.5" y="515.7452830188679" as="targetPoint" />
          </mxGeometry>
        </mxCell>
        <mxCell id="CFoMmbY4XtNixEHZfKA1-141" value="" style="endArrow=none;html=1;rounded=0;exitX=0;exitY=0.5;exitDx=0;exitDy=0;entryX=1;entryY=0.5;entryDx=0;entryDy=0;" parent="1" source="CFoMmbY4XtNixEHZfKA1-127" target="CFoMmbY4XtNixEHZfKA1-123" edge="1">
          <mxGeometry width="50" height="50" relative="1" as="geometry">
            <mxPoint x="224.25" y="442.64150943396226" as="sourcePoint" />
            <mxPoint x="186.25" y="476.51886792452825" as="targetPoint" />
          </mxGeometry>
        </mxCell>
        <mxCell id="CFoMmbY4XtNixEHZfKA1-142" value="" style="endArrow=none;html=1;rounded=0;exitX=1;exitY=0.5;exitDx=0;exitDy=0;entryX=0;entryY=0.5;entryDx=0;entryDy=0;" parent="1" source="CFoMmbY4XtNixEHZfKA1-124" target="CFoMmbY4XtNixEHZfKA1-128" edge="1">
          <mxGeometry width="50" height="50" relative="1" as="geometry">
            <mxPoint x="252.75" y="371.3207547169811" as="sourcePoint" />
            <mxPoint x="214.75" y="512.1792452830188" as="targetPoint" />
          </mxGeometry>
        </mxCell>
        <mxCell id="CFoMmbY4XtNixEHZfKA1-143" value="" style="endArrow=none;html=1;rounded=0;exitX=1;exitY=0.5;exitDx=0;exitDy=0;entryX=0;entryY=0.5;entryDx=0;entryDy=0;" parent="1" source="CFoMmbY4XtNixEHZfKA1-124" target="CFoMmbY4XtNixEHZfKA1-129" edge="1">
          <mxGeometry width="50" height="50" relative="1" as="geometry">
            <mxPoint x="233.75" y="346.3584905660377" as="sourcePoint" />
            <mxPoint x="271.75" y="382.01886792452825" as="targetPoint" />
          </mxGeometry>
        </mxCell>
        <mxCell id="CFoMmbY4XtNixEHZfKA1-144" value="" style="endArrow=none;html=1;rounded=0;exitX=1;exitY=0.5;exitDx=0;exitDy=0;entryX=0;entryY=0.5;entryDx=0;entryDy=0;" parent="1" source="CFoMmbY4XtNixEHZfKA1-125" target="CFoMmbY4XtNixEHZfKA1-128" edge="1">
          <mxGeometry width="50" height="50" relative="1" as="geometry">
            <mxPoint x="229" y="371.3207547169811" as="sourcePoint" />
            <mxPoint x="267" y="492.566037735849" as="targetPoint" />
          </mxGeometry>
        </mxCell>
        <mxCell id="CFoMmbY4XtNixEHZfKA1-145" value="" style="endArrow=none;html=1;rounded=0;exitX=1;exitY=0.5;exitDx=0;exitDy=0;entryX=0;entryY=0.5;entryDx=0;entryDy=0;" parent="1" source="CFoMmbY4XtNixEHZfKA1-125" target="CFoMmbY4XtNixEHZfKA1-129" edge="1">
          <mxGeometry width="50" height="50" relative="1" as="geometry">
            <mxPoint x="195.75" y="382.01886792452825" as="sourcePoint" />
            <mxPoint x="233.75" y="364.18867924528297" as="targetPoint" />
          </mxGeometry>
        </mxCell>
        <mxCell id="CFoMmbY4XtNixEHZfKA1-146" value="" style="endArrow=none;html=1;rounded=0;exitX=1;exitY=0.5;exitDx=0;exitDy=0;entryX=0;entryY=0.5;entryDx=0;entryDy=0;" parent="1" source="CFoMmbY4XtNixEHZfKA1-126" target="CFoMmbY4XtNixEHZfKA1-128" edge="1">
          <mxGeometry width="50" height="50" relative="1" as="geometry">
            <mxPoint x="210" y="374.88679245283015" as="sourcePoint" />
            <mxPoint x="248" y="442.64150943396226" as="targetPoint" />
          </mxGeometry>
        </mxCell>
        <mxCell id="CFoMmbY4XtNixEHZfKA1-147" value="" style="endArrow=none;html=1;rounded=0;exitX=1;exitY=0.5;exitDx=0;exitDy=0;entryX=0;entryY=0.5;entryDx=0;entryDy=0;" parent="1" source="CFoMmbY4XtNixEHZfKA1-126" target="CFoMmbY4XtNixEHZfKA1-129" edge="1">
          <mxGeometry width="50" height="50" relative="1" as="geometry">
            <mxPoint x="214.75" y="467.60377358490564" as="sourcePoint" />
            <mxPoint x="252.75" y="396.2830188679245" as="targetPoint" />
          </mxGeometry>
        </mxCell>
        <mxCell id="CFoMmbY4XtNixEHZfKA1-148" value="" style="endArrow=none;html=1;rounded=0;exitX=1;exitY=0.5;exitDx=0;exitDy=0;entryX=0;entryY=0.5;entryDx=0;entryDy=0;" parent="1" source="CFoMmbY4XtNixEHZfKA1-127" target="CFoMmbY4XtNixEHZfKA1-128" edge="1">
          <mxGeometry width="50" height="50" relative="1" as="geometry">
            <mxPoint x="233.75" y="421.2452830188679" as="sourcePoint" />
            <mxPoint x="271.75" y="435.5094339622641" as="targetPoint" />
          </mxGeometry>
        </mxCell>
        <mxCell id="CFoMmbY4XtNixEHZfKA1-149" value="" style="endArrow=none;html=1;rounded=0;exitX=1;exitY=0.5;exitDx=0;exitDy=0;entryX=0;entryY=0.5;entryDx=0;entryDy=0;" parent="1" source="CFoMmbY4XtNixEHZfKA1-127" target="CFoMmbY4XtNixEHZfKA1-129" edge="1">
          <mxGeometry width="50" height="50" relative="1" as="geometry">
            <mxPoint x="176.75" y="592.4150943396226" as="sourcePoint" />
            <mxPoint x="214.75" y="467.60377358490564" as="targetPoint" />
          </mxGeometry>
        </mxCell>
        <mxCell id="CFoMmbY4XtNixEHZfKA1-152" value="" style="rounded=1;whiteSpace=wrap;html=1;fillColor=none;container=0;" parent="1" vertex="1">
          <mxGeometry x="48" y="291.01" width="190" height="198.99" as="geometry" />
        </mxCell>
        <mxCell id="CFoMmbY4XtNixEHZfKA1-196" value="" style="ellipse;whiteSpace=wrap;html=1;aspect=fixed;container=0;" parent="1" vertex="1">
          <mxGeometry x="468" y="726.8867924528302" width="16.02004716981132" height="16.02004716981132" as="geometry" />
        </mxCell>
        <mxCell id="CFoMmbY4XtNixEHZfKA1-197" value="" style="ellipse;whiteSpace=wrap;html=1;aspect=fixed;container=0;" parent="1" vertex="1">
          <mxGeometry x="468" y="784.2452830188679" width="16.02004716981132" height="16.02004716981132" as="geometry" />
        </mxCell>
        <mxCell id="CFoMmbY4XtNixEHZfKA1-198" value="" style="ellipse;whiteSpace=wrap;html=1;aspect=fixed;container=0;" parent="1" vertex="1">
          <mxGeometry x="468" y="841.6037735849056" width="16.02004716981132" height="16.02004716981132" as="geometry" />
        </mxCell>
        <mxCell id="CFoMmbY4XtNixEHZfKA1-199" value="" style="ellipse;whiteSpace=wrap;html=1;aspect=fixed;container=0;" parent="1" vertex="1">
          <mxGeometry x="545.1573604060914" y="700" width="16.02004716981132" height="16.02004716981132" as="geometry" />
        </mxCell>
        <mxCell id="CFoMmbY4XtNixEHZfKA1-200" value="" style="ellipse;whiteSpace=wrap;html=1;aspect=fixed;container=0;" parent="1" vertex="1">
          <mxGeometry x="545.1573604060914" y="753.7735849056604" width="16.02004716981132" height="16.02004716981132" as="geometry" />
        </mxCell>
        <mxCell id="CFoMmbY4XtNixEHZfKA1-201" value="" style="ellipse;whiteSpace=wrap;html=1;aspect=fixed;container=0;" parent="1" vertex="1">
          <mxGeometry x="545.1573604060914" y="807.5471698113207" width="16.02004716981132" height="16.02004716981132" as="geometry" />
        </mxCell>
        <mxCell id="CFoMmbY4XtNixEHZfKA1-202" value="" style="ellipse;whiteSpace=wrap;html=1;aspect=fixed;container=0;" parent="1" vertex="1">
          <mxGeometry x="545.1573604060914" y="861.3207547169811" width="16.02004716981132" height="16.02004716981132" as="geometry" />
        </mxCell>
        <mxCell id="CFoMmbY4XtNixEHZfKA1-203" value="" style="ellipse;whiteSpace=wrap;html=1;aspect=fixed;container=0;" parent="1" vertex="1">
          <mxGeometry x="619.4213197969543" y="784.2452830188679" width="16.02004716981132" height="16.02004716981132" as="geometry" />
        </mxCell>
        <mxCell id="CFoMmbY4XtNixEHZfKA1-204" value="" style="endArrow=none;html=1;rounded=0;exitX=1;exitY=0.5;exitDx=0;exitDy=0;entryX=0;entryY=0.5;entryDx=0;entryDy=0;" parent="1" source="CFoMmbY4XtNixEHZfKA1-196" target="CFoMmbY4XtNixEHZfKA1-199" edge="1">
          <mxGeometry width="50" height="50" relative="1" as="geometry">
            <mxPoint x="607.8477157360405" y="818.3018867924528" as="sourcePoint" />
            <mxPoint x="631.9593908629441" y="800.377358490566" as="targetPoint" />
          </mxGeometry>
        </mxCell>
        <mxCell id="CFoMmbY4XtNixEHZfKA1-205" value="" style="endArrow=none;html=1;rounded=0;exitX=0;exitY=0.5;exitDx=0;exitDy=0;entryX=1;entryY=0.5;entryDx=0;entryDy=0;" parent="1" source="CFoMmbY4XtNixEHZfKA1-200" target="CFoMmbY4XtNixEHZfKA1-196" edge="1">
          <mxGeometry width="50" height="50" relative="1" as="geometry">
            <mxPoint x="545.1573604060914" y="766.3207547169811" as="sourcePoint" />
            <mxPoint x="583.736040609137" y="739.433962264151" as="targetPoint" />
          </mxGeometry>
        </mxCell>
        <mxCell id="CFoMmbY4XtNixEHZfKA1-206" value="" style="endArrow=none;html=1;rounded=0;exitX=0;exitY=0.5;exitDx=0;exitDy=0;entryX=1;entryY=0.5;entryDx=0;entryDy=0;" parent="1" source="CFoMmbY4XtNixEHZfKA1-201" target="CFoMmbY4XtNixEHZfKA1-196" edge="1">
          <mxGeometry width="50" height="50" relative="1" as="geometry">
            <mxPoint x="612.6700507614214" y="809.3396226415094" as="sourcePoint" />
            <mxPoint x="574.0913705583756" y="782.4528301886793" as="targetPoint" />
          </mxGeometry>
        </mxCell>
        <mxCell id="CFoMmbY4XtNixEHZfKA1-207" value="" style="endArrow=none;html=1;rounded=0;exitX=0;exitY=0.5;exitDx=0;exitDy=0;entryX=1;entryY=0.5;entryDx=0;entryDy=0;" parent="1" source="CFoMmbY4XtNixEHZfKA1-202" target="CFoMmbY4XtNixEHZfKA1-196" edge="1">
          <mxGeometry width="50" height="50" relative="1" as="geometry">
            <mxPoint x="622.3147208121827" y="877.4528301886793" as="sourcePoint" />
            <mxPoint x="559.6243654822335" y="746.6037735849056" as="targetPoint" />
          </mxGeometry>
        </mxCell>
        <mxCell id="CFoMmbY4XtNixEHZfKA1-208" value="" style="endArrow=none;html=1;rounded=0;exitX=0;exitY=0.5;exitDx=0;exitDy=0;entryX=1;entryY=0.5;entryDx=0;entryDy=0;" parent="1" source="CFoMmbY4XtNixEHZfKA1-199" target="CFoMmbY4XtNixEHZfKA1-197" edge="1">
          <mxGeometry width="50" height="50" relative="1" as="geometry">
            <mxPoint x="612.6700507614214" y="924.0566037735848" as="sourcePoint" />
            <mxPoint x="574.0913705583756" y="789.622641509434" as="targetPoint" />
          </mxGeometry>
        </mxCell>
        <mxCell id="CFoMmbY4XtNixEHZfKA1-209" value="" style="endArrow=none;html=1;rounded=0;exitX=0;exitY=0.5;exitDx=0;exitDy=0;entryX=1;entryY=0.5;entryDx=0;entryDy=0;" parent="1" source="CFoMmbY4XtNixEHZfKA1-200" target="CFoMmbY4XtNixEHZfKA1-197" edge="1">
          <mxGeometry width="50" height="50" relative="1" as="geometry">
            <mxPoint x="559.6243654822335" y="782.4528301886793" as="sourcePoint" />
            <mxPoint x="521.0456852791879" y="866.6981132075472" as="targetPoint" />
          </mxGeometry>
        </mxCell>
        <mxCell id="CFoMmbY4XtNixEHZfKA1-210" value="" style="endArrow=none;html=1;rounded=0;exitX=0;exitY=0.5;exitDx=0;exitDy=0;entryX=1;entryY=0.5;entryDx=0;entryDy=0;" parent="1" source="CFoMmbY4XtNixEHZfKA1-201" target="CFoMmbY4XtNixEHZfKA1-197" edge="1">
          <mxGeometry width="50" height="50" relative="1" as="geometry">
            <mxPoint x="569.269035532995" y="796.7924528301887" as="sourcePoint" />
            <mxPoint x="530.6903553299493" y="827.2641509433962" as="targetPoint" />
          </mxGeometry>
        </mxCell>
        <mxCell id="CFoMmbY4XtNixEHZfKA1-211" value="" style="endArrow=none;html=1;rounded=0;exitX=0;exitY=0.5;exitDx=0;exitDy=0;entryX=1;entryY=0.5;entryDx=0;entryDy=0;" parent="1" source="CFoMmbY4XtNixEHZfKA1-202" target="CFoMmbY4XtNixEHZfKA1-197" edge="1">
          <mxGeometry width="50" height="50" relative="1" as="geometry">
            <mxPoint x="646.4263959390862" y="809.3396226415094" as="sourcePoint" />
            <mxPoint x="607.8477157360405" y="786.0377358490566" as="targetPoint" />
          </mxGeometry>
        </mxCell>
        <mxCell id="CFoMmbY4XtNixEHZfKA1-212" value="" style="endArrow=none;html=1;rounded=0;exitX=0;exitY=0.5;exitDx=0;exitDy=0;entryX=1;entryY=0.5;entryDx=0;entryDy=0;" parent="1" source="CFoMmbY4XtNixEHZfKA1-199" target="CFoMmbY4XtNixEHZfKA1-198" edge="1">
          <mxGeometry width="50" height="50" relative="1" as="geometry">
            <mxPoint x="646.4263959390862" y="909.7169811320755" as="sourcePoint" />
            <mxPoint x="607.8477157360405" y="832.6415094339623" as="targetPoint" />
          </mxGeometry>
        </mxCell>
        <mxCell id="CFoMmbY4XtNixEHZfKA1-213" value="" style="endArrow=none;html=1;rounded=0;exitX=0;exitY=0.5;exitDx=0;exitDy=0;entryX=1;entryY=0.5;entryDx=0;entryDy=0;" parent="1" source="CFoMmbY4XtNixEHZfKA1-200" target="CFoMmbY4XtNixEHZfKA1-198" edge="1">
          <mxGeometry width="50" height="50" relative="1" as="geometry">
            <mxPoint x="549.9796954314721" y="829.0566037735849" as="sourcePoint" />
            <mxPoint x="511.4010152284264" y="970.6603773584907" as="targetPoint" />
          </mxGeometry>
        </mxCell>
        <mxCell id="CFoMmbY4XtNixEHZfKA1-214" value="" style="endArrow=none;html=1;rounded=0;exitX=0;exitY=0.5;exitDx=0;exitDy=0;entryX=1;entryY=0.5;entryDx=0;entryDy=0;" parent="1" source="CFoMmbY4XtNixEHZfKA1-201" target="CFoMmbY4XtNixEHZfKA1-198" edge="1">
          <mxGeometry width="50" height="50" relative="1" as="geometry">
            <mxPoint x="593.3807106598985" y="829.0566037735849" as="sourcePoint" />
            <mxPoint x="554.8020304568528" y="916.8867924528302" as="targetPoint" />
          </mxGeometry>
        </mxCell>
        <mxCell id="CFoMmbY4XtNixEHZfKA1-215" value="" style="endArrow=none;html=1;rounded=0;exitX=0;exitY=0.5;exitDx=0;exitDy=0;entryX=1;entryY=0.5;entryDx=0;entryDy=0;" parent="1" source="CFoMmbY4XtNixEHZfKA1-202" target="CFoMmbY4XtNixEHZfKA1-198" edge="1">
          <mxGeometry width="50" height="50" relative="1" as="geometry">
            <mxPoint x="636.7817258883249" y="843.3962264150944" as="sourcePoint" />
            <mxPoint x="598.2030456852792" y="877.4528301886793" as="targetPoint" />
          </mxGeometry>
        </mxCell>
        <mxCell id="CFoMmbY4XtNixEHZfKA1-216" value="" style="endArrow=none;html=1;rounded=0;exitX=1;exitY=0.5;exitDx=0;exitDy=0;entryX=0;entryY=0.5;entryDx=0;entryDy=0;" parent="1" source="CFoMmbY4XtNixEHZfKA1-199" target="CFoMmbY4XtNixEHZfKA1-203" edge="1">
          <mxGeometry width="50" height="50" relative="1" as="geometry">
            <mxPoint x="665.7157360406092" y="771.6981132075472" as="sourcePoint" />
            <mxPoint x="627.1370558375634" y="913.3018867924528" as="targetPoint" />
          </mxGeometry>
        </mxCell>
        <mxCell id="CFoMmbY4XtNixEHZfKA1-217" value="" style="endArrow=none;html=1;rounded=0;exitX=1;exitY=0.5;exitDx=0;exitDy=0;entryX=0;entryY=0.5;entryDx=0;entryDy=0;" parent="1" source="CFoMmbY4XtNixEHZfKA1-200" target="CFoMmbY4XtNixEHZfKA1-203" edge="1">
          <mxGeometry width="50" height="50" relative="1" as="geometry">
            <mxPoint x="641.6040609137056" y="771.6981132075472" as="sourcePoint" />
            <mxPoint x="680.1827411167512" y="893.5849056603774" as="targetPoint" />
          </mxGeometry>
        </mxCell>
        <mxCell id="CFoMmbY4XtNixEHZfKA1-218" value="" style="endArrow=none;html=1;rounded=0;exitX=1;exitY=0.5;exitDx=0;exitDy=0;entryX=0;entryY=0.5;entryDx=0;entryDy=0;" parent="1" source="CFoMmbY4XtNixEHZfKA1-201" target="CFoMmbY4XtNixEHZfKA1-203" edge="1">
          <mxGeometry width="50" height="50" relative="1" as="geometry">
            <mxPoint x="622.3147208121827" y="775.2830188679245" as="sourcePoint" />
            <mxPoint x="660.8934010152284" y="843.3962264150944" as="targetPoint" />
          </mxGeometry>
        </mxCell>
        <mxCell id="CFoMmbY4XtNixEHZfKA1-219" value="" style="endArrow=none;html=1;rounded=0;exitX=1;exitY=0.5;exitDx=0;exitDy=0;entryX=0;entryY=0.5;entryDx=0;entryDy=0;" parent="1" source="CFoMmbY4XtNixEHZfKA1-202" target="CFoMmbY4XtNixEHZfKA1-203" edge="1">
          <mxGeometry width="50" height="50" relative="1" as="geometry">
            <mxPoint x="646.4263959390862" y="821.8867924528302" as="sourcePoint" />
            <mxPoint x="685.005076142132" y="836.2264150943396" as="targetPoint" />
          </mxGeometry>
        </mxCell>
        <mxCell id="CFoMmbY4XtNixEHZfKA1-220" value="" style="rounded=1;whiteSpace=wrap;html=1;fillColor=none;container=0;" parent="1" vertex="1">
          <mxGeometry x="455.17" y="689.01" width="190" height="198.99" as="geometry" />
        </mxCell>
        <mxCell id="Q-EU4Q4c3PTDjTRaEYYh-5" value="&lt;font style=&quot;font-size: 30px;&quot;&gt;value&lt;/font&gt;" style="rounded=1;whiteSpace=wrap;html=1;align=left;textDirection=vertical-rl;fontSize=15;container=0;" parent="1" vertex="1">
          <mxGeometry x="660" y="739.76" width="32" height="97.5" as="geometry" />
        </mxCell>
        <mxCell id="0FYvdhBju1f0UNd1yTLN-1" value="&lt;font style=&quot;font-size: 30px;&quot;&gt;observation&lt;/font&gt;" style="rounded=1;whiteSpace=wrap;html=1;align=left;textDirection=vertical-rl;fontSize=15;fillColor=#ffe6cc;strokeColor=#d79b00;container=0;" parent="1" vertex="1">
          <mxGeometry x="414" y="290" width="32" height="200" as="geometry" />
        </mxCell>
        <mxCell id="0FYvdhBju1f0UNd1yTLN-2" value="" style="ellipse;whiteSpace=wrap;html=1;aspect=fixed;container=0;" parent="1" vertex="1">
          <mxGeometry x="472" y="326.88679245283015" width="16.02004716981132" height="16.02004716981132" as="geometry" />
        </mxCell>
        <mxCell id="0FYvdhBju1f0UNd1yTLN-3" value="" style="ellipse;whiteSpace=wrap;html=1;aspect=fixed;container=0;" parent="1" vertex="1">
          <mxGeometry x="472" y="384.2452830188679" width="16.02004716981132" height="16.02004716981132" as="geometry" />
        </mxCell>
        <mxCell id="0FYvdhBju1f0UNd1yTLN-4" value="" style="ellipse;whiteSpace=wrap;html=1;aspect=fixed;container=0;" parent="1" vertex="1">
          <mxGeometry x="472" y="441.60377358490564" width="16.02004716981132" height="16.02004716981132" as="geometry" />
        </mxCell>
        <mxCell id="0FYvdhBju1f0UNd1yTLN-5" value="" style="ellipse;whiteSpace=wrap;html=1;aspect=fixed;container=0;" parent="1" vertex="1">
          <mxGeometry x="549.1573604060914" y="300" width="16.02004716981132" height="16.02004716981132" as="geometry" />
        </mxCell>
        <mxCell id="0FYvdhBju1f0UNd1yTLN-6" value="" style="ellipse;whiteSpace=wrap;html=1;aspect=fixed;container=0;" parent="1" vertex="1">
          <mxGeometry x="549.1573604060914" y="353.7735849056604" width="16.02004716981132" height="16.02004716981132" as="geometry" />
        </mxCell>
        <mxCell id="0FYvdhBju1f0UNd1yTLN-7" value="" style="ellipse;whiteSpace=wrap;html=1;aspect=fixed;container=0;" parent="1" vertex="1">
          <mxGeometry x="549.1573604060914" y="407.5471698113207" width="16.02004716981132" height="16.02004716981132" as="geometry" />
        </mxCell>
        <mxCell id="0FYvdhBju1f0UNd1yTLN-8" value="" style="ellipse;whiteSpace=wrap;html=1;aspect=fixed;container=0;" parent="1" vertex="1">
          <mxGeometry x="549.1573604060914" y="461.3207547169811" width="16.02004716981132" height="16.02004716981132" as="geometry" />
        </mxCell>
        <mxCell id="0FYvdhBju1f0UNd1yTLN-9" value="" style="ellipse;whiteSpace=wrap;html=1;aspect=fixed;container=0;" parent="1" vertex="1">
          <mxGeometry x="623.4213197969543" y="384.2452830188679" width="16.02004716981132" height="16.02004716981132" as="geometry" />
        </mxCell>
        <mxCell id="0FYvdhBju1f0UNd1yTLN-10" value="" style="endArrow=none;html=1;rounded=0;exitX=1;exitY=0.5;exitDx=0;exitDy=0;entryX=0;entryY=0.5;entryDx=0;entryDy=0;" parent="1" source="0FYvdhBju1f0UNd1yTLN-2" target="0FYvdhBju1f0UNd1yTLN-5" edge="1">
          <mxGeometry width="50" height="50" relative="1" as="geometry">
            <mxPoint x="611.8477157360405" y="418.3018867924528" as="sourcePoint" />
            <mxPoint x="635.9593908629441" y="400.37735849056605" as="targetPoint" />
          </mxGeometry>
        </mxCell>
        <mxCell id="0FYvdhBju1f0UNd1yTLN-11" value="" style="endArrow=none;html=1;rounded=0;exitX=0;exitY=0.5;exitDx=0;exitDy=0;entryX=1;entryY=0.5;entryDx=0;entryDy=0;" parent="1" source="0FYvdhBju1f0UNd1yTLN-6" target="0FYvdhBju1f0UNd1yTLN-2" edge="1">
          <mxGeometry width="50" height="50" relative="1" as="geometry">
            <mxPoint x="549.1573604060914" y="366.3207547169811" as="sourcePoint" />
            <mxPoint x="587.736040609137" y="339.433962264151" as="targetPoint" />
          </mxGeometry>
        </mxCell>
        <mxCell id="0FYvdhBju1f0UNd1yTLN-12" value="" style="endArrow=none;html=1;rounded=0;exitX=0;exitY=0.5;exitDx=0;exitDy=0;entryX=1;entryY=0.5;entryDx=0;entryDy=0;" parent="1" source="0FYvdhBju1f0UNd1yTLN-7" target="0FYvdhBju1f0UNd1yTLN-2" edge="1">
          <mxGeometry width="50" height="50" relative="1" as="geometry">
            <mxPoint x="616.6700507614214" y="409.33962264150944" as="sourcePoint" />
            <mxPoint x="578.0913705583756" y="382.4528301886793" as="targetPoint" />
          </mxGeometry>
        </mxCell>
        <mxCell id="0FYvdhBju1f0UNd1yTLN-13" value="" style="endArrow=none;html=1;rounded=0;exitX=0;exitY=0.5;exitDx=0;exitDy=0;entryX=1;entryY=0.5;entryDx=0;entryDy=0;" parent="1" source="0FYvdhBju1f0UNd1yTLN-8" target="0FYvdhBju1f0UNd1yTLN-2" edge="1">
          <mxGeometry width="50" height="50" relative="1" as="geometry">
            <mxPoint x="626.3147208121827" y="477.4528301886793" as="sourcePoint" />
            <mxPoint x="563.6243654822335" y="346.60377358490564" as="targetPoint" />
          </mxGeometry>
        </mxCell>
        <mxCell id="0FYvdhBju1f0UNd1yTLN-14" value="" style="endArrow=none;html=1;rounded=0;exitX=0;exitY=0.5;exitDx=0;exitDy=0;entryX=1;entryY=0.5;entryDx=0;entryDy=0;" parent="1" source="0FYvdhBju1f0UNd1yTLN-5" target="0FYvdhBju1f0UNd1yTLN-3" edge="1">
          <mxGeometry width="50" height="50" relative="1" as="geometry">
            <mxPoint x="616.6700507614214" y="524.0566037735848" as="sourcePoint" />
            <mxPoint x="578.0913705583756" y="389.62264150943395" as="targetPoint" />
          </mxGeometry>
        </mxCell>
        <mxCell id="0FYvdhBju1f0UNd1yTLN-15" value="" style="endArrow=none;html=1;rounded=0;exitX=0;exitY=0.5;exitDx=0;exitDy=0;entryX=1;entryY=0.5;entryDx=0;entryDy=0;" parent="1" source="0FYvdhBju1f0UNd1yTLN-6" target="0FYvdhBju1f0UNd1yTLN-3" edge="1">
          <mxGeometry width="50" height="50" relative="1" as="geometry">
            <mxPoint x="563.6243654822335" y="382.4528301886793" as="sourcePoint" />
            <mxPoint x="525.0456852791879" y="466.6981132075472" as="targetPoint" />
          </mxGeometry>
        </mxCell>
        <mxCell id="0FYvdhBju1f0UNd1yTLN-16" value="" style="endArrow=none;html=1;rounded=0;exitX=0;exitY=0.5;exitDx=0;exitDy=0;entryX=1;entryY=0.5;entryDx=0;entryDy=0;" parent="1" source="0FYvdhBju1f0UNd1yTLN-7" target="0FYvdhBju1f0UNd1yTLN-3" edge="1">
          <mxGeometry width="50" height="50" relative="1" as="geometry">
            <mxPoint x="573.269035532995" y="396.7924528301887" as="sourcePoint" />
            <mxPoint x="534.6903553299492" y="427.2641509433962" as="targetPoint" />
          </mxGeometry>
        </mxCell>
        <mxCell id="0FYvdhBju1f0UNd1yTLN-17" value="" style="endArrow=none;html=1;rounded=0;exitX=0;exitY=0.5;exitDx=0;exitDy=0;entryX=1;entryY=0.5;entryDx=0;entryDy=0;" parent="1" source="0FYvdhBju1f0UNd1yTLN-8" target="0FYvdhBju1f0UNd1yTLN-3" edge="1">
          <mxGeometry width="50" height="50" relative="1" as="geometry">
            <mxPoint x="650.4263959390862" y="409.33962264150944" as="sourcePoint" />
            <mxPoint x="611.8477157360405" y="386.0377358490566" as="targetPoint" />
          </mxGeometry>
        </mxCell>
        <mxCell id="0FYvdhBju1f0UNd1yTLN-18" value="" style="endArrow=none;html=1;rounded=0;exitX=0;exitY=0.5;exitDx=0;exitDy=0;entryX=1;entryY=0.5;entryDx=0;entryDy=0;" parent="1" source="0FYvdhBju1f0UNd1yTLN-5" target="0FYvdhBju1f0UNd1yTLN-4" edge="1">
          <mxGeometry width="50" height="50" relative="1" as="geometry">
            <mxPoint x="650.4263959390862" y="509.7169811320755" as="sourcePoint" />
            <mxPoint x="611.8477157360405" y="432.64150943396226" as="targetPoint" />
          </mxGeometry>
        </mxCell>
        <mxCell id="0FYvdhBju1f0UNd1yTLN-19" value="" style="endArrow=none;html=1;rounded=0;exitX=0;exitY=0.5;exitDx=0;exitDy=0;entryX=1;entryY=0.5;entryDx=0;entryDy=0;" parent="1" source="0FYvdhBju1f0UNd1yTLN-6" target="0FYvdhBju1f0UNd1yTLN-4" edge="1">
          <mxGeometry width="50" height="50" relative="1" as="geometry">
            <mxPoint x="553.979695431472" y="429.0566037735849" as="sourcePoint" />
            <mxPoint x="515.4010152284263" y="570.6603773584907" as="targetPoint" />
          </mxGeometry>
        </mxCell>
        <mxCell id="0FYvdhBju1f0UNd1yTLN-20" value="" style="endArrow=none;html=1;rounded=0;exitX=0;exitY=0.5;exitDx=0;exitDy=0;entryX=1;entryY=0.5;entryDx=0;entryDy=0;" parent="1" source="0FYvdhBju1f0UNd1yTLN-7" target="0FYvdhBju1f0UNd1yTLN-4" edge="1">
          <mxGeometry width="50" height="50" relative="1" as="geometry">
            <mxPoint x="597.3807106598985" y="429.0566037735849" as="sourcePoint" />
            <mxPoint x="558.8020304568528" y="516.8867924528302" as="targetPoint" />
          </mxGeometry>
        </mxCell>
        <mxCell id="0FYvdhBju1f0UNd1yTLN-21" value="" style="endArrow=none;html=1;rounded=0;exitX=0;exitY=0.5;exitDx=0;exitDy=0;entryX=1;entryY=0.5;entryDx=0;entryDy=0;" parent="1" source="0FYvdhBju1f0UNd1yTLN-8" target="0FYvdhBju1f0UNd1yTLN-4" edge="1">
          <mxGeometry width="50" height="50" relative="1" as="geometry">
            <mxPoint x="640.7817258883249" y="443.39622641509436" as="sourcePoint" />
            <mxPoint x="602.2030456852792" y="477.4528301886793" as="targetPoint" />
          </mxGeometry>
        </mxCell>
        <mxCell id="0FYvdhBju1f0UNd1yTLN-22" value="" style="endArrow=none;html=1;rounded=0;exitX=1;exitY=0.5;exitDx=0;exitDy=0;entryX=0;entryY=0.5;entryDx=0;entryDy=0;" parent="1" source="0FYvdhBju1f0UNd1yTLN-5" target="0FYvdhBju1f0UNd1yTLN-9" edge="1">
          <mxGeometry width="50" height="50" relative="1" as="geometry">
            <mxPoint x="669.7157360406092" y="371.6981132075472" as="sourcePoint" />
            <mxPoint x="631.1370558375634" y="513.3018867924527" as="targetPoint" />
          </mxGeometry>
        </mxCell>
        <mxCell id="0FYvdhBju1f0UNd1yTLN-23" value="" style="endArrow=none;html=1;rounded=0;exitX=1;exitY=0.5;exitDx=0;exitDy=0;entryX=0;entryY=0.5;entryDx=0;entryDy=0;" parent="1" source="0FYvdhBju1f0UNd1yTLN-6" target="0FYvdhBju1f0UNd1yTLN-9" edge="1">
          <mxGeometry width="50" height="50" relative="1" as="geometry">
            <mxPoint x="645.6040609137056" y="371.6981132075472" as="sourcePoint" />
            <mxPoint x="684.1827411167512" y="493.58490566037744" as="targetPoint" />
          </mxGeometry>
        </mxCell>
        <mxCell id="0FYvdhBju1f0UNd1yTLN-24" value="" style="endArrow=none;html=1;rounded=0;exitX=1;exitY=0.5;exitDx=0;exitDy=0;entryX=0;entryY=0.5;entryDx=0;entryDy=0;" parent="1" source="0FYvdhBju1f0UNd1yTLN-7" target="0FYvdhBju1f0UNd1yTLN-9" edge="1">
          <mxGeometry width="50" height="50" relative="1" as="geometry">
            <mxPoint x="626.3147208121827" y="375.2830188679245" as="sourcePoint" />
            <mxPoint x="664.8934010152284" y="443.39622641509436" as="targetPoint" />
          </mxGeometry>
        </mxCell>
        <mxCell id="0FYvdhBju1f0UNd1yTLN-25" value="" style="endArrow=none;html=1;rounded=0;exitX=1;exitY=0.5;exitDx=0;exitDy=0;entryX=0;entryY=0.5;entryDx=0;entryDy=0;" parent="1" source="0FYvdhBju1f0UNd1yTLN-8" target="0FYvdhBju1f0UNd1yTLN-9" edge="1">
          <mxGeometry width="50" height="50" relative="1" as="geometry">
            <mxPoint x="650.4263959390862" y="421.88679245283015" as="sourcePoint" />
            <mxPoint x="689.005076142132" y="436.2264150943396" as="targetPoint" />
          </mxGeometry>
        </mxCell>
        <mxCell id="0FYvdhBju1f0UNd1yTLN-26" value="" style="rounded=1;whiteSpace=wrap;html=1;fillColor=none;container=0;" parent="1" vertex="1">
          <mxGeometry x="459.1700000000001" y="289.01" width="190" height="198.99" as="geometry" />
        </mxCell>
        <mxCell id="0FYvdhBju1f0UNd1yTLN-28" value="&lt;span&gt;Lagrange multiplier&lt;/span&gt;" style="rounded=1;whiteSpace=wrap;html=1;align=center;fontSize=30;fillColor=#d5e8d4;strokeColor=#82b366;container=0;direction=west;textDirection=vertical-rl;" parent="1" vertex="1">
          <mxGeometry x="660" y="310.74" width="70" height="160" as="geometry" />
        </mxCell>
        <mxCell id="0FYvdhBju1f0UNd1yTLN-30" value="&lt;font color=&quot;#ea6b66&quot;&gt;cost&lt;/font&gt;" style="text;html=1;align=center;verticalAlign=middle;whiteSpace=wrap;rounded=0;fontSize=30;container=0;" parent="1" vertex="1">
          <mxGeometry x="467.99999999999994" y="548" width="70" height="65" as="geometry" />
        </mxCell>
        <mxCell id="0FYvdhBju1f0UNd1yTLN-32" value="" style="endArrow=blockThin;html=1;rounded=0;endFill=1;movable=1;resizable=1;rotatable=1;deletable=1;editable=1;locked=0;connectable=1;exitX=0.5;exitY=1;exitDx=0;exitDy=0;entryX=0;entryY=0.5;entryDx=0;entryDy=0;" parent="1" source="CFoMmbY4XtNixEHZfKA1-31" target="0FYvdhBju1f0UNd1yTLN-1" edge="1">
          <mxGeometry width="50" height="50" relative="1" as="geometry">
            <mxPoint x="-405" y="1020" as="sourcePoint" />
            <mxPoint x="360" y="590" as="targetPoint" />
            <Array as="points">
              <mxPoint x="-420" y="940" />
              <mxPoint x="-50" y="940" />
              <mxPoint x="-50" y="590" />
              <mxPoint x="350" y="590" />
              <mxPoint x="350" y="390" />
            </Array>
          </mxGeometry>
        </mxCell>
        <mxCell id="sEKY_q2jC5Rpg2rfc8_h-1" value="&lt;font&gt;Lagrange Multiplier Network&lt;/font&gt;" style="text;html=1;align=center;verticalAlign=middle;whiteSpace=wrap;rounded=0;container=0;fontSize=30;" vertex="1" parent="1">
          <mxGeometry x="368.83" y="215" width="376.67" height="80" as="geometry" />
        </mxCell>
      </root>
    </mxGraphModel>
  </diagram>
</mxfile>
